<svg width="24" height="24" viewBox="0 0 24 24" fill="none" xmlns="http://www.w3.org/2000/svg">
<path d="M8.261 0.779988C5.8916 1.60195 3.84823 3.16208 2.43104 5.23119C1.01384 7.30031 0.297513 9.76936 0.387276 12.2757C0.477039 14.782 1.36816 17.1935 2.92975 19.1559C4.49133 21.1183 6.64107 22.5283 9.06321 23.1787C11.0269 23.6853 13.0842 23.7076 15.0584 23.2435C16.8468 22.8418 18.5003 21.9825 19.8568 20.7498C21.2687 19.4277 22.2935 17.7457 22.8211 15.8847C23.3945 13.861 23.4965 11.7328 23.1193 9.66349H12.0923V14.2377H18.4784C18.3508 14.9673 18.0773 15.6636 17.6743 16.285C17.2713 16.9063 16.747 17.44 16.133 17.8541C15.3531 18.3699 14.4741 18.717 13.5522 18.8731C12.6276 19.045 11.6793 19.045 10.7547 18.8731C9.81759 18.6793 8.93111 18.2926 8.1517 17.7374C6.89957 16.8511 5.9594 15.5919 5.46534 14.1395C4.96293 12.66 4.96293 11.056 5.46534 9.57642C5.81702 8.53933 6.3984 7.59506 7.16608 6.8141C8.0446 5.90398 9.15683 5.25342 10.3807 4.93379C11.6046 4.61417 12.893 4.63784 14.1043 5.0022C15.0506 5.29268 15.9159 5.80021 16.6313 6.48433C17.3514 5.76797 18.0702 5.04975 18.7878 4.32968C19.1584 3.94248 19.5622 3.5738 19.9272 3.17733C18.8352 2.1611 17.5534 1.37035 16.1552 0.850389C13.6091 -0.0741078 10.8232 -0.0989527 8.261 0.779988Z" fill="white"/>
<path d="M8.26101 0.779972C10.823 -0.0995653 13.6089 -0.0753743 16.1552 0.848521C17.5536 1.37202 18.8349 2.16657 19.9254 3.18658C19.5548 3.58305 19.1639 3.95358 18.786 4.33893C18.0671 5.05653 17.3489 5.77166 16.6313 6.48431C15.9159 5.8002 15.0506 5.29267 14.1043 5.00219C12.8934 4.63655 11.6051 4.61151 10.3809 4.92983C9.15662 5.24814 8.04371 5.89751 7.16423 6.80668C6.39655 7.58764 5.81517 8.53191 5.46349 9.56899L1.62292 6.59547C2.99761 3.8694 5.3778 1.78416 8.26101 0.779972Z" fill="#E33629"/>
<path d="M0.603992 9.54119C0.810418 8.51814 1.15313 7.5274 1.62296 6.59546L5.46352 9.57639C4.96111 11.0559 4.96111 12.6599 5.46352 14.1395C4.18395 15.1276 2.90376 16.1206 1.62296 17.1186C0.446795 14.7774 0.0880868 12.1099 0.603992 9.54119Z" fill="#F8BD00"/>
<path d="M12.0923 9.66162H23.1194C23.4965 11.7309 23.3945 13.8591 22.8211 15.8829C22.2935 17.7438 21.2687 19.4258 19.8568 20.7479C18.6174 19.7809 17.3724 18.8212 16.133 17.8541C16.7475 17.4396 17.2719 16.9053 17.675 16.2833C18.078 15.6612 18.3513 14.9642 18.4784 14.234H12.0923C12.0905 12.7111 12.0923 11.1864 12.0923 9.66162Z" fill="#587DBD"/>
<path d="M1.62109 17.1186C2.9019 16.1305 4.18209 15.1375 5.46166 14.1395C5.9567 15.5924 6.89822 16.8516 8.15172 17.7374C8.93356 18.29 9.82195 18.6736 10.7603 18.8638C11.6849 19.0357 12.6332 19.0357 13.5578 18.8638C14.4797 18.7078 15.3587 18.3607 16.1385 17.8448C17.378 18.8119 18.623 19.7716 19.8624 20.7387C18.506 21.9721 16.8526 22.832 15.064 23.2342C13.0898 23.6983 11.0325 23.6761 9.06879 23.1694C7.51571 22.7547 6.06503 22.0237 4.80767 21.0222C3.47683 19.9656 2.38987 18.634 1.62109 17.1186Z" fill="#319F43"/>
</svg>
