<svg width="26" height="26" viewBox="0 0 26 26" fill="none" xmlns="http://www.w3.org/2000/svg">
<path opacity="0.8" d="M19.48 19.48C17.6152 20.9014 15.3444 21.6889 13 21.7273C5.36362 21.7273 1 13 1 13C2.35696 10.4711 4.23905 8.26174 6.51998 6.51999M10.7091 4.53454C11.46 4.35877 12.2288 4.27091 13 4.27272C20.6363 4.27272 25 13 25 13C24.3377 14.2388 23.548 15.4052 22.6436 16.4799M15.3127 15.3127C15.0131 15.6343 14.6518 15.8921 14.2503 16.071C13.8489 16.2499 13.4155 16.346 12.976 16.3539C12.5367 16.3616 12.1001 16.2807 11.6926 16.1161C11.2851 15.9516 10.9149 15.7065 10.6042 15.3957C10.2934 15.085 10.0484 14.7149 9.88381 14.3074C9.71921 13.8998 9.63837 13.4633 9.64612 13.0239C9.65387 12.5845 9.75006 12.151 9.92894 11.7497C10.1078 11.3482 10.3657 10.9869 10.6873 10.6873M1 1L25 25" stroke="#D12642" stroke-opacity="0.7" stroke-width="2" stroke-linecap="round" stroke-linejoin="round"/>
</svg>
